<?xml version="1.0" encoding="UTF-8"?><!DOCTYPE svg PUBLIC "-//W3C//DTD SVG 1.1//EN" "http://www.w3.org/Graphics/SVG/1.1/DTD/svg11.dtd"><svg xmlns="http://www.w3.org/2000/svg" xmlns:xlink="http://www.w3.org/1999/xlink"><defs/><symbol id="xing" viewBox="0 0 24 24">
  <path d="M8.68042746 9.83361709L6.31603864 5.64892894C6.13600904 5.10483947 5.77194917 4.9208092 5.4078893 4.9208092L1.95132089 4.9208092C1.77129128 4.9208092 1.58726102 5.10483947 1.58726102 5.10483947 1.40723141 5.28486907 1.40723141 5.46889934 1.58726102 5.6529296L3.77162023 9.83761775.135022204 16.3826941C-.0450074013 16.5627237-.0450074013 16.7507546.135022204 16.9347848.315051809 17.1148145.499082072 17.1228158.679111677 17.1228158L4.13568009 17.1228158C4.49973996 17.1228158 4.86379983 16.7547552 5.04382943 16.3906954 5.77194917 15.2985158 8.68042746 9.83361709 8.68042746 9.83361709zM20.5423781.196032237C20.3423452.0120019737 20.1423123 0 19.958282 0L16.5017136 0C16.1376538 0 15.7735939.372061184 15.5935643.732120394 10.6807564 9.64558617 8.53640377 14.1943342 8.35237351 14.3783645L12.8651156 23.4638585C13.0451452 23.8279184 13.4092051 24 13.7732649 24L17.2298334 24C17.5938932 24 17.5938932 24.007948 17.7739228 23.8279184 17.9539524 23.6478888 17.9539524 23.4678592 17.7739228 23.2878296L13.2851847 14.3783645 20.5423781.924151973C20.5423781.74012171 20.5423781.560092105 20.5423781.196032237z" transform="translate(1.73)"/>
</symbol><symbol id="youtube" viewBox="0 0 24 24">
  <path d="M23.996006,3.58662007 C23.996006,1.60559161 22.3904144,5.67582814e-16 20.4093859,5.67582814e-16 L3.58662007,5.67582814e-16 C1.60559161,5.67582814e-16 -5.67582814e-16,1.60559161 -5.67582814e-16,3.58662007 L-5.67582814e-16,13.2081877 C-5.67582814e-16,15.1892162 1.60559161,16.7948078 3.58662007,16.7948078 L20.4133799,16.7948078 C22.3944084,16.7948078 24,15.1892162 24,13.2081877 L24,3.58662007 L23.996006,3.58662007 Z M9.59760359,12.457314 L9.59760359,3.4228657 L16.451323,7.94008987 L9.59760359,12.457314 Z" transform="translate(0 3.605)"/>
</symbol></svg>